# xmcd CD database file
#
# Track frame offsets:
#	150
#	12346
#	28532
#	40985
#	53469
#	63210
#	75078
#	87525
#	104933
#	117010
#	130009
#	144125
#	157353
#	168151
#	178194
#	193297
#	206850
#	219189
#	232345
#	246897
#
# Disc length: 3463 seconds
#
# Revision: 0
# Processed by: cddbd v1.5.2PL0 Copyright (c) Steve Scherf et al.
# Submitted via: CDex 1.70beta2
#
DISCID=180d8514
DTITLE=Stan Getz - The Sound - CD 1
DYEAR=2002
DGENRE=Jazz
TTITLE0=Stardust
TTITLE1=Five Brothers
TTITLE2=Running Water
TTITLE3=My Old Flame
TTITLE4=Tootsie Roll
TTITLE5=Crazy Chords
TTITLE6=On The Alamo
TTITLE7=Battle Of The Saxes
TTITLE8=Goodnight My Love
TTITLE9=Slow
TTITLE10=Fast
TTITLE11=Gone With The Wind
TTITLE12=Imagination
TTITLE13=Bopelbath
TTITLE14=Intoit
TTITLE15=You Go To My Head
TTITLE16=Interlude In Bebop
TTITLE17='S Wonderful
TTITLE18=The Lady In Red
TTITLE19=Indian Summer
EXTD=YEAR: 2002
EXTT0=
EXTT1=
EXTT2=
EXTT3=
EXTT4=
EXTT5=
EXTT6=
EXTT7=
EXTT8=
EXTT9=
EXTT10=
EXTT11=
EXTT12=
EXTT13=
EXTT14=
EXTT15=
EXTT16=
EXTT17=
EXTT18=
EXTT19=
PLAYORDER=
